<svg xmlns="http://www.w3.org/2000/svg" width="32" height="32" viewBox="0 0 32 32" fill="none">
  <defs>
    <linearGradient id="g" x1="0" y1="0" x2="32" y2="32" gradientUnits="userSpaceOnUse">
      <stop stop-color="#6366F1"/>
      <stop offset="1" stop-color="#A78BFA"/>
    </linearGradient>
  </defs>
  <rect width="32" height="32" rx="8" fill="url(#g)"/>
  <path d="M8 11h16l-1.1 11.7a2.7 2.7 0 0 1-2.7 2.4h-8.4a2.7 2.7 0 0 1-2.7-2.4L8 11Z" stroke="#fff" stroke-width="2" stroke-linejoin="round"/>
  <path d="M12.3 11V9a3.7 3.7 0 0 1 7.4 0v2" stroke="#fff" stroke-width="2" stroke-linecap="round"/>
  <path d="m16 14.4.83 2.17 2.17.83-2.17.83L16 20.4l-.83-2.17-2.17-.83 2.17-.83L16 14.4Z" fill="#fff"/>
</svg>
